<svg width="223" height="116" viewBox="0 0 223 116" fill="none" xmlns="http://www.w3.org/2000/svg">
    <path d="M40.3411 0C36.8028 0 33.4095 1.40472 30.9075 3.90514C28.4056 6.40555 27 9.79685 27 13.333V79.9978C27 83.5339 28.4056 86.9252 30.9075 89.4257C33.4095 91.9261 36.8028 93.3308 40.3411 93.3308H60.3795C60.4261 92.5708 60.5462 91.7975 60.7397 91.0175L61.827 86.6643H47.0117V56.6651C47.0117 55.7811 47.3631 54.9333 47.9885 54.3082C48.614 53.6831 49.4624 53.3319 50.3469 53.3319H86.6614L93.332 46.6654H50.3469C47.6932 46.6654 45.1482 47.7189 43.2717 49.5942C41.3953 51.4696 40.3411 54.013 40.3411 56.6651V86.6643C38.572 86.6643 36.8753 85.9619 35.6243 84.7117C34.3733 83.4615 33.6706 81.7659 33.6706 79.9978V13.333C33.6706 11.5649 34.3733 9.86926 35.6243 8.61905C36.8753 7.36885 38.572 6.66648 40.3411 6.66648H47.0117V23.3327C47.0117 25.9848 48.0658 28.5283 49.9423 30.4036C51.8188 32.2789 54.3638 33.3324 57.0175 33.3324H83.6997C86.3534 33.3324 88.8984 32.2789 90.7749 30.4036C92.6514 28.5283 93.7055 25.9848 93.7055 23.3327V6.66648H96.2337C98.0027 6.66686 99.6991 7.36947 100.95 8.61977L111.763 19.4261C113.014 20.6761 113.717 22.3714 113.717 24.1393V33.3524C115.974 33.247 118.233 33.5404 120.388 34.2191V24.146C120.387 20.6102 118.981 17.2194 116.479 14.7196L105.666 3.91323C104.428 2.67385 102.958 1.69036 101.339 1.01892C99.7209 0.347481 97.986 0.00124915 96.2337 0H40.3411ZM53.6822 23.3327V6.66648H87.035V23.3327C87.035 24.2167 86.6836 25.0646 86.0581 25.6897C85.4326 26.3148 84.5843 26.6659 83.6997 26.6659H57.0175C56.1329 26.6659 55.2846 26.3148 54.6591 25.6897C54.0336 25.0646 53.6822 24.2167 53.6822 23.3327Z" fill="#E5E5E5"/>
    <path d="M105.779 43.6521L73.5605 75.8513C71.6827 77.727 70.3501 80.0773 69.7049 82.6511L67.2035 92.6375C66.9568 93.6307 66.9713 94.6708 67.2457 95.6567C67.5201 96.6426 68.045 97.5409 68.7694 98.2642C69.4938 98.9875 70.3931 99.5112 71.3799 99.7845C72.3667 100.058 73.4074 100.071 74.401 99.8239L84.3935 97.3307C86.9683 96.684 89.323 95.3574 91.1975 93.4774L123.416 61.2783C125.725 58.9339 127.013 55.7724 127 52.4829C126.987 49.1934 125.673 46.0425 123.345 43.7168C121.017 41.3912 117.864 40.0794 114.572 40.0673C111.281 40.0552 108.118 41.3437 105.773 43.6521H105.779Z" fill="#E5E5E5"/>
    <circle cx="17" cy="99" r="16.5" fill="#11026F" stroke="#60A5FA"/>
    <path d="M22.3198 108H11.1118V105.776L16.4014 100.139C17.1276 99.3451 17.6629 98.6525 18.0073 98.061C18.3592 97.4696 18.5352 96.908 18.5352 96.3765C18.5352 95.6502 18.3517 95.0812 17.9849 94.6694C17.618 94.2502 17.0939 94.0405 16.4126 94.0405C15.6789 94.0405 15.0986 94.2951 14.6719 94.8042C14.2526 95.3058 14.043 95.9684 14.043 96.792H10.7861C10.7861 95.7962 11.022 94.8866 11.4937 94.063C11.9728 93.2394 12.6466 92.5955 13.5151 92.1313C14.3836 91.6597 15.3682 91.4238 16.4688 91.4238C18.1533 91.4238 19.4598 91.8281 20.3882 92.6367C21.3241 93.4453 21.792 94.5871 21.792 96.062C21.792 96.8706 21.5824 97.6942 21.1631 98.5327C20.7438 99.3713 20.0251 100.348 19.0068 101.464L15.2896 105.383H22.3198V108Z" fill="#E8E7E6"/>
    <path d="M111 37C119.861 36.7839 127.37 30.2591 135.556 37C138.372 39.3198 140.054 42.7238 143 45C147.931 48.8101 157.179 45.0262 161.667 42.3333C167.426 38.8779 172.279 34.4432 176.611 29.4444C179.918 25.6293 181.33 24 186.222 24C198.845 24 208.701 32.2338 220 36" stroke="#23A6CF" stroke-width="3" stroke-linecap="round"/>
    <path d="M216 26C216.104 30.264 216.755 31.8663 219.444 34.5556C220.727 35.8383 221.584 37.7129 219 38C216.321 38.2976 211.281 39.8593 209 41" stroke="#23A6CF" stroke-width="3" stroke-linecap="round"/>
    <path d="M111 37C119.861 36.7839 127.37 30.2591 135.556 37C138.372 39.3198 140.054 42.7238 143 45C147.931 48.8101 157.179 45.0262 161.667 42.3333C167.426 38.8779 172.279 34.4432 176.611 29.4444C179.918 25.6293 181.33 24 186.222 24C198.845 24 208.701 32.2338 220 36" stroke="#23A6CF" stroke-width="3" stroke-linecap="round"/>
    <path d="M216 26C216.104 30.264 216.755 31.8663 219.444 34.5556C220.727 35.8383 221.584 37.7129 219 38C216.321 38.2976 211.281 39.8593 209 41" stroke="#23A6CF" stroke-width="3" stroke-linecap="round"/>
    </svg>
