<svg width="80" height="80" viewBox="0 0 80 80" fill="none" xmlns="http://www.w3.org/2000/svg">
    <path d="M36.6667 26.1C34.7161 25.4104 33.0275 24.1328 31.8335 22.4433C30.6395 20.7538 29.9989 18.7355 30 16.6667C30 14.0145 31.0536 11.471 32.9289 9.5956C34.8043 7.72023 37.3478 6.66666 40 6.66666C42.6522 6.66666 45.1957 7.72023 47.0711 9.5956C48.9464 11.471 50 14.0145 50 16.6667C50 21.0333 47.2 24.7333 43.3333 26.1V35.4667C41.1542 34.8477 38.8458 34.8477 36.6667 35.4667V26.1ZM61 70.3333C59.2027 69.3097 57.7686 67.7521 56.8966 65.8765C56.0245 64.001 55.7578 61.9006 56.1333 59.8667L48 55.1667C49.6 53.6333 50.8 51.6667 51.3333 49.4L59.4667 54.1C62.6 51.4 67.2 50.8667 70.9667 53.0333C75.7667 55.8 77.4 61.9 74.6333 66.6667C73.9814 67.8052 73.1109 68.8036 72.0719 69.6046C71.0329 70.4056 69.8458 70.9933 68.5789 71.334C67.312 71.6748 65.9902 71.7618 64.6896 71.59C63.3889 71.4183 62.135 70.9912 61 70.3333V70.3333ZM9 53C12.7667 50.8333 17.3667 51.4 20.5 54.0667L28.6667 49.3667C29.2 51.6667 30.3667 53.6 32 55.1333L23.8333 59.8333C24.6 63.9 22.7667 68.1667 19 70.3333C14.2 73.1 8.1 71.4667 5.33333 66.6667C4.67555 65.5288 4.24858 64.2725 4.07687 62.9695C3.90516 61.6665 3.99208 60.3424 4.33265 59.073C4.67321 57.8036 5.26075 56.6138 6.06162 55.5718C6.8625 54.5297 7.86101 53.6558 9 53V53ZM46.6667 46.6667C46.6667 48.4348 45.9643 50.1305 44.714 51.3807C43.4638 52.6309 41.7681 53.3333 40 53.3333C38.2319 53.3333 36.5362 52.6309 35.286 51.3807C34.0357 50.1305 33.3333 48.4348 33.3333 46.6667C33.3333 44.8986 34.0357 43.2029 35.286 41.9526C36.5362 40.7024 38.2319 40 40 40C41.7681 40 43.4638 40.7024 44.714 41.9526C45.9643 43.2029 46.6667 44.8986 46.6667 46.6667ZM56.6667 46.6667L56.5667 48.5667L51.6667 45.7C51.3333 42.1333 49.4333 39.0333 46.6667 37.0667V31.3667C52.5667 33.9667 56.6667 39.8333 56.6667 46.6667ZM49.9 60.1C47.1333 62.1333 43.7 63.3333 40 63.3333C36.3 63.3333 32.8667 62.1333 30.1 60L35 57.2333C36.5333 57.9333 38.2333 58.3333 40 58.3333C41.7667 58.3333 43.4333 57.9333 45 57.2333L49.9 60.1ZM23.4333 48.5333L23.3333 46.6667C23.3333 39.8333 27.4333 33.9667 33.3333 31.4V37.1C30.5667 39.0333 28.6667 42.1333 28.3333 45.6667L23.4333 48.5333V48.5333Z" fill="#60A5FA"/>
    </svg>
