<svg width="80" height="80" viewBox="0 0 80 80" fill="none" xmlns="http://www.w3.org/2000/svg">
    <path d="M76.2619 57.8324L76.2209 57.6458C76.1931 57.5233 76.1559 57.3388 76.0981 57.1042C76.0005 56.83 75.8311 56.4246 75.6408 56.0072C75.5466 55.8099 75.4444 55.5947 75.328 55.3663C75.2114 55.138 75.0661 54.9141 74.9177 54.6647C74.7706 54.4122 74.5947 54.1697 74.4092 53.9064C74.2259 53.638 74.0167 53.3808 73.7934 53.108C73.3511 52.5553 72.8111 52.03 72.2114 51.4847C72.0613 51.3461 71.9053 51.2233 71.7459 51.0886C71.5864 50.9583 71.4227 50.8175 71.2549 50.6902C70.9197 50.4413 70.5655 50.1636 70.1991 49.9244C70.0153 49.8008 69.8281 49.6733 69.6347 49.5508L69.0486 49.2022C68.648 48.9594 68.2417 48.7539 67.8153 48.5249C66.1242 47.6724 64.2378 46.9441 62.2586 46.3824C62.0114 46.3124 61.7616 46.2392 61.5088 46.1714L60.7527 45.9838C60.4984 45.9198 60.243 45.8601 59.9867 45.8045L59.2116 45.6338C58.6983 45.5314 58.168 45.42 57.6452 45.3389L56.8508 45.2083L56.0536 45.0913C55.7849 45.0506 55.5181 45.016 55.2505 44.9824C54.9813 44.9465 54.7117 44.914 54.4417 44.885C53.9061 44.8327 53.3583 44.7731 52.8175 44.7317L51.9989 44.6658L51.1797 44.6108C50.6303 44.5767 50.087 44.5614 49.5347 44.5386C47.7347 44.4739 45.9256 44.4875 44.127 44.5481L44.1298 44.4856C44.1534 43.9216 44.1494 43.3547 44.1583 42.7891L44.1647 41.94L44.1456 41.0903C44.1311 40.5242 44.1194 39.9577 44.0978 39.3942C44.0763 38.8305 44.045 38.2669 44.0272 37.7061C44.0078 37.1455 43.9645 36.5863 43.9323 36.0288C43.8027 33.8011 43.5011 31.5955 42.9927 29.478L42.8075 28.6869C42.7384 28.425 42.6622 28.1649 42.59 27.9059C42.4469 27.388 42.2889 26.8756 42.1278 26.3705L41.6164 24.8766C41.4425 24.3849 41.2444 23.9036 41.0536 23.4283C40.3045 21.5244 39.4647 19.7511 38.6588 18.1106C38.2283 17.2966 37.8597 16.5023 37.4433 15.7566C37.0317 15.0097 36.6531 14.2909 36.2463 13.6197C35.8489 12.9458 35.4759 12.3045 35.0887 11.7103C34.7058 11.1148 34.3645 10.5481 33.9898 10.0386C33.6255 9.52391 33.2944 9.05016 32.9733 8.60906C32.6414 8.16485 32.3428 7.75985 32.0648 7.40094C31.9255 7.22297 31.7939 7.04985 31.67 6.89766L31.3212 6.49141L30.7708 5.85094L30.3036 5.32141C29.9003 4.86497 29.3399 4.57726 28.7339 4.51563C27.4058 4.38156 26.2205 5.34953 26.0864 6.67766L26.0434 7.10406L26.0239 7.2975L25.9806 7.85547L25.935 8.74531C25.9262 8.92031 25.9258 9.10485 25.9203 9.3036C25.91 9.49594 25.8905 9.69125 25.8741 9.90078C25.8406 10.317 25.8239 10.7647 25.7919 11.2497L25.7652 11.6289L25.7436 12.023C25.728 12.2902 25.7128 12.5653 25.703 12.8461C25.6848 13.4073 25.6395 14.0066 25.6119 14.6248C25.597 14.9342 25.592 15.2472 25.5653 15.5717L25.5103 16.5542C25.4531 17.8805 25.3508 19.3003 25.1395 20.782C25.082 21.1531 25.0145 21.5283 24.9513 21.9045C24.8858 22.2811 24.8272 22.6588 24.7411 23.0411L24.4992 24.1892C24.4622 24.3806 24.4092 24.5739 24.3652 24.7661L24.2302 25.3434C24.1361 25.7289 24.0661 26.1125 23.9605 26.4983C23.8725 26.8827 23.7797 27.2674 23.7027 27.6506C23.5192 28.4172 23.3798 29.182 23.2377 29.9417C22.9778 31.4636 22.7855 32.9711 22.6747 34.4761C22.573 35.9836 22.4445 37.4756 22.3725 38.9611C22.3061 40.4494 22.2556 41.9233 22.2394 43.3908C22.2316 43.7561 22.2378 44.126 22.2286 44.4889L22.2056 45.5745C22.2122 45.9411 22.1923 46.2944 22.1813 46.6503L22.1625 47.1824C22.1586 47.3577 22.1495 47.5328 22.135 47.7075C22.088 48.3999 22.0588 49.0941 21.9798 49.7495C21.9669 49.8688 21.9555 49.988 21.9437 50.107C21.5152 50.4617 21.1055 50.831 20.7227 51.2219C20.1318 51.8181 19.5815 52.4532 19.0753 53.1228C18.5927 53.7678 18.1497 54.4416 17.7489 55.1403C16.9656 56.4956 16.3953 57.871 15.9933 59.1072C15.8909 59.4111 15.8059 59.7236 15.7253 60.0116L15.6091 60.4303L15.5125 60.8425C15.4506 61.1075 15.3941 61.3514 15.3517 61.5921C15.308 61.83 15.2644 62.0356 15.2364 62.2424C15.1866 62.555 15.1459 62.8691 15.1144 63.1841L15.0864 63.5288L14.9931 64.6728C14.8797 66.048 15.8169 67.3174 17.2027 67.5875L17.42 67.6299L18.0377 67.7296C18.5747 67.8121 19.3439 67.9069 20.2908 67.9889C21.2366 68.0689 22.3639 68.1419 23.6119 68.161C24.8616 68.183 26.2389 68.1636 27.7041 68.0883L28.818 68.0188L29.9587 67.9203L32.3395 67.7164C33.9692 67.5846 35.6933 67.5108 37.4327 67.3824C39.1698 67.2433 40.9244 67.0627 42.627 66.6796C44.3342 66.3077 46.0069 65.7925 47.6489 65.1891C49.2906 64.58 50.9202 63.9964 52.5139 63.4316C54.1041 62.8789 55.6595 62.3356 57.1408 61.8602C57.8855 61.6152 58.6034 61.4014 59.3113 61.18L59.833 61.0291L60.0934 60.9499L60.348 60.8778L61.3523 60.595C61.5143 60.5476 61.6771 60.5034 61.8408 60.4624L62.3217 60.338L63.2469 60.1197C63.8611 59.9617 64.4223 59.871 64.9802 59.7583C65.2453 59.7138 65.5283 59.655 65.7788 59.6247L66.1653 59.5705C66.2866 59.5602 66.4114 59.5406 66.5355 59.5247L66.7222 59.4999L66.8995 59.4828L67.2536 59.4508L67.9269 59.4133C68.7958 59.3827 69.5641 59.4458 70.2255 59.5677C70.5577 59.6266 70.8477 59.7103 71.12 59.7835C71.1933 59.8046 71.2403 59.8139 71.295 59.8274L71.4525 59.8647L71.605 59.8999L71.6775 59.9174C71.7011 59.9228 71.7234 59.9263 71.7525 59.9471C71.9674 60.0788 72.1427 60.173 72.2567 60.2389L72.4314 60.338L72.68 60.4789C73.2025 60.7748 73.816 60.8668 74.4023 60.7372C75.7184 60.4491 76.5508 59.1481 76.2619 57.8324V57.8324Z" fill="#60A5FA"/>
    <path d="M78.6544 8.67625C78.6544 8.67625 78.6353 9.15937 78.5419 10.0072C78.4533 10.86 78.2919 12.0792 78.0123 13.5569C77.7333 15.035 77.3395 16.7752 76.8028 18.6859C76.6656 19.1606 76.5314 19.658 76.3736 20.1502C76.2191 20.6458 76.0658 21.1612 75.8894 21.6712C75.5378 22.7428 75.1589 23.8051 74.7528 24.8572C73.0809 29.21 70.7645 33.9227 67.8261 38.5152C66.3324 40.856 64.7207 43.1193 62.997 45.2964C61.2542 47.5073 59.3772 49.6469 57.4089 51.6951C56.4219 52.7164 55.4186 53.7214 54.3848 54.688C53.3552 55.6511 52.2998 56.5864 51.2198 57.4928C49.0713 59.298 46.8345 60.9523 44.5659 62.4491C42.2964 63.945 39.9877 65.2762 37.692 66.4323C35.4919 67.5427 33.2319 68.5301 30.9223 69.3901C28.8724 70.154 26.7838 70.8096 24.6652 71.3544C22.7178 71.8547 20.9367 72.2073 19.4195 72.4473C17.9013 72.6862 16.6542 72.8198 15.767 72.8741C15.3347 72.9123 14.9812 72.9198 14.7498 72.9316C14.6344 72.9378 14.5422 72.9376 14.4816 72.9389L14.3898 72.9403C11.3297 72.9883 8.81 70.5464 8.76187 67.4862C8.76125 67.4283 8.76125 67.3704 8.76187 67.3125L8.76328 67.2208C8.76453 67.1603 8.76437 67.068 8.77062 66.9525C8.78234 66.7211 8.78984 66.3676 8.82812 65.9353C8.88234 65.0481 9.01594 63.8011 9.25484 62.2828C9.49484 60.7656 9.8475 58.9845 10.3478 57.0372C10.8926 54.9185 11.5483 52.8299 12.312 50.78C13.1721 48.4705 14.1596 46.2105 15.2698 44.0103C16.4259 41.7147 17.7572 39.4059 19.2531 37.1364C20.7498 34.8677 22.4042 32.6311 24.2094 30.4825C25.1157 29.4025 26.051 28.3471 27.0142 27.3175C27.9808 26.2837 28.9858 25.2805 30.007 24.2934C32.0553 22.3252 34.1948 20.4481 36.4058 18.7053C38.5828 16.9817 40.8462 15.3699 43.187 13.8762C47.7797 10.9378 52.4922 8.62156 56.845 6.94953C57.8971 6.54349 58.9594 6.16451 60.0309 5.81297C60.5409 5.63656 61.0564 5.48328 61.552 5.32875C62.0444 5.17094 62.5416 5.03672 63.0162 4.89953C64.927 4.36281 66.6672 3.96906 68.1453 3.69C69.623 3.41047 70.8423 3.24906 71.695 3.16047C72.543 3.06703 73.0259 3.04797 73.0259 3.04797C76.0166 2.93031 78.5363 5.25938 78.6539 8.25C78.6598 8.38937 78.6592 8.53953 78.6544 8.67625V8.67625Z" fill="#E8E7E6"/>
    <path d="M60.8536 66.6416C60.8314 66.198 60.7764 65.7441 60.7074 65.273L60.5803 64.5605C60.5311 64.3161 60.4792 64.0723 60.4244 63.8291C60.193 62.8434 59.8449 61.8375 59.4222 60.817L59.2581 60.4331L59.0831 60.0559L58.9011 59.6738L58.7091 59.2992C58.5788 59.0475 58.4466 58.7902 58.3063 58.5444C58.1669 58.2952 58.0228 58.0391 57.8731 57.7969C56.6769 55.8163 55.1853 53.935 53.5325 52.2603C53.3236 52.0453 53.1177 51.8473 52.9052 51.6384C52.6922 51.4294 52.482 51.2286 52.2627 51.0356L52.0986 50.8889L52.0161 50.8155L51.9749 50.7788L51.9542 50.7603C51.9806 50.7681 51.6449 50.6234 51.7803 50.6777L51.5442 50.433L51.485 50.3717L51.4555 50.3411C51.45 50.3358 51.4469 50.3314 51.4394 50.3253L51.4041 50.3022L51.1197 50.1186L50.5505 49.7611C49.2875 48.9444 47.928 48.2477 46.5203 47.7127C45.1187 47.179 43.6668 46.788 42.1867 46.5456C41.4539 46.4352 40.7166 46.3373 39.9839 46.3014C39.6164 46.2791 39.2503 46.2613 38.8848 46.257C38.518 46.2519 38.157 46.2625 37.7914 46.2684C34.8853 46.3661 32.0841 47.0255 29.5489 48.062C28.1251 48.6472 26.7611 49.3684 25.4758 50.2156C26.3542 48.3977 26.9747 46.435 27.4056 44.4137C27.8525 42.3298 28.0263 40.1655 27.9464 37.9961C27.89 36.9078 27.7978 35.8244 27.6044 34.7411C27.5819 34.6061 27.5623 34.4716 27.5369 34.337L27.4552 33.9319C27.3988 33.6623 27.3478 33.3941 27.2845 33.1272C27.1513 32.5878 27.0245 32.0602 26.8597 31.5283C26.2234 29.4114 25.3606 27.3694 24.2863 25.4377C23.7508 24.4792 23.167 23.5487 22.5369 22.6497C21.8991 21.7542 21.2267 20.9053 20.5078 20.1014C20.3309 19.9017 20.137 19.7027 19.9541 19.5102L19.677 19.2241L19.3848 18.9419C19.1903 18.7545 19.0081 18.5725 18.8073 18.3937C18.6092 18.2179 18.4093 18.044 18.2078 17.872C18.0111 17.7028 17.792 17.5391 17.588 17.38L17.2789 17.1451L16.9589 16.917C16.7447 16.7673 16.5397 16.6206 16.3242 16.4822C16.108 16.3473 15.8902 16.2149 15.6709 16.0851C15.4613 15.9555 15.2269 15.8419 15.0091 15.7276C14.787 15.615 14.5744 15.5045 14.3467 15.4078C14.128 15.31 13.9082 15.2147 13.6873 15.122C13.4684 15.0336 13.2425 14.9589 13.0259 14.8833C12.5973 14.7245 12.1561 14.618 11.7423 14.5105C11.5342 14.4589 11.323 14.4256 11.1194 14.3886C10.9142 14.3561 10.7159 14.3153 10.5175 14.2978C10.3236 14.2777 10.1292 14.2627 9.93453 14.253L9.65282 14.2383C9.56 14.2355 9.46813 14.2389 9.3775 14.2395C9.19578 14.2439 9.01813 14.2536 8.84578 14.2625C8.67282 14.2695 8.50657 14.2834 8.34422 14.3114L7.87172 14.3853C7.71891 14.4083 7.57063 14.4383 7.43 14.4781C7.16333 14.5459 6.89883 14.6219 6.63688 14.7061C6.39547 14.7934 6.17235 14.8923 5.96594 14.9792C5.86203 15.0245 5.76578 15.0698 5.66781 15.1161C5.56578 15.167 5.46828 15.2133 5.37594 15.2655C5.20787 15.3574 5.04113 15.4517 4.87578 15.5484L4.76719 15.6123L4.71531 15.6433C4.7025 15.6531 4.6911 15.6645 4.67938 15.6753L4.54641 15.7984L4.32485 16.0042L4.16578 16.1641C4.12281 16.2062 4.09063 16.2403 4.06922 16.2639L4.03672 16.2987L3.53969 16.8334C3.25627 17.1374 3.07032 17.5193 3.00578 17.9298C2.82453 19.0708 3.6025 20.1427 4.74344 20.3239L4.90047 20.3489C5.05192 20.3743 5.204 20.3957 5.35656 20.4131C5.58781 20.4287 5.72016 20.4947 5.9211 20.5495C5.96907 20.565 6.01781 20.5758 6.06781 20.5889L6.24156 20.6414C6.3611 20.6766 6.48641 20.7189 6.61578 20.7502L7.005 20.8916C7.07282 20.912 7.1375 20.9455 7.20328 20.973L7.40344 21.057L7.50516 21.0986L7.60313 21.1516C7.6686 21.1869 7.73422 21.2237 7.8011 21.2564C7.83438 21.2727 7.86922 21.2859 7.90188 21.3044L7.9986 21.3636L8.19438 21.4789C8.26094 21.5148 8.32 21.5695 8.38391 21.6125C8.44578 21.6605 8.51266 21.6962 8.57297 21.7487C8.69172 21.8578 8.82063 21.9434 8.93344 22.0697C9.17344 22.2869 9.38828 22.572 9.59203 22.8811C9.79735 23.1894 9.97953 23.5609 10.14 23.9627C10.3006 24.3686 10.4342 24.828 10.5522 25.3105C10.6694 25.7983 10.7439 26.3348 10.8025 26.888C10.8552 27.4487 10.8747 28.038 10.88 28.6409C10.8805 29.8578 10.7623 31.1456 10.5914 32.4562C10.4244 33.7644 10.1998 35.0994 9.94813 36.4206C9.92969 36.5137 9.91313 36.6069 9.89594 36.6998C6.71313 46.8909 -3.57906 60.6503 2.75 71.4963L2.37844 71.8678C0.724064 73.5224 0.724064 76.2049 2.37844 77.8594C3.20563 78.6866 4.29 79.1002 5.37422 79.1002C6.45844 79.1002 7.54266 78.6866 8.37 77.8594L8.71625 77.5131C16.1666 81.941 23.3142 76.6631 30.4984 72.3294C30.517 72.3181 30.5341 72.3058 30.5523 72.2944C32.0423 71.5518 33.5566 70.8588 35.0925 70.2166C36.03 69.8249 36.9502 69.4534 37.8586 69.1072C38.3105 68.9283 38.7642 68.7702 39.21 68.6009L40.5416 68.1261C40.9814 67.9775 41.4192 67.8131 41.8558 67.6699C42.2919 67.5213 42.7302 67.3695 43.1692 67.2378C43.3909 67.1658 43.61 67.1056 43.8352 67.0361C44.0606 66.9684 44.2795 66.9239 44.5086 66.867C44.5533 66.8486 44.572 66.8231 44.6072 66.8L44.6558 66.7636L44.662 66.7589C44.6672 66.7588 44.6752 66.76 44.6816 66.7603L44.7224 66.7641L44.8038 66.7716L45.1284 66.8014C45.2347 66.8441 45.0067 66.7455 45.0356 66.7556L45.0513 66.7561L45.0827 66.7572L45.1453 66.7592L45.2709 66.7634C45.6092 66.7733 45.9434 66.7769 46.2717 66.7922C47.588 66.8449 48.8139 66.9659 49.9066 67.213C51.0028 67.455 51.9534 67.8353 52.7436 68.3564L53.035 68.5566L53.3017 68.7736C53.4708 68.9234 53.642 69.0763 53.7922 69.2394C54.1061 69.5611 54.3638 69.9136 54.5769 70.2761C54.6936 70.4542 54.7791 70.6411 54.8786 70.8213C54.9619 71.0058 55.0519 71.1864 55.1224 71.3677C55.1953 71.5492 55.273 71.725 55.3405 71.9008C55.4092 72.0759 55.4834 72.2455 55.535 72.412C55.5909 72.5781 55.6664 72.7384 55.7142 72.8928L55.7897 73.1188L55.8714 73.3344C55.9242 73.4725 55.9588 73.5941 56.0072 73.7136C56.0519 73.8339 56.0977 73.9375 56.1292 74.0461C56.2638 74.4863 56.3628 74.7263 56.3628 74.7263C56.4102 74.8411 56.4823 74.9441 56.5738 75.0281C56.6654 75.112 56.7743 75.1748 56.8928 75.2121C57.0113 75.2493 57.1366 75.2601 57.2597 75.2437C57.3829 75.2272 57.5009 75.1839 57.6055 75.1169L57.7881 74.9997C57.7881 74.9997 58.0534 74.8295 58.463 74.4938C58.7087 74.2572 58.9371 74.0032 59.1461 73.7336C59.4205 73.3834 59.6624 73.009 59.8688 72.6149C60.1045 72.1734 60.3075 71.658 60.4722 71.0688C60.5508 70.775 60.612 70.4605 60.6747 70.1302C60.7216 69.7981 60.7833 69.4483 60.8083 69.0794C60.89 68.3403 60.8995 67.5267 60.8536 66.6416V66.6416Z" fill="#60A5FA"/>
    <path d="M54.8202 40.4659C54.4325 40.4664 54.0486 40.3903 53.6905 40.242C53.3323 40.0937 53.007 39.876 52.7333 39.6016L51.0756 37.9439C49.923 36.7914 49.923 34.9227 51.0755 33.77C52.2281 32.6173 54.0969 32.6173 55.2495 33.77L56.9072 35.4277C58.0598 36.5802 58.0599 38.4489 56.9074 39.6016C56.6336 39.876 56.3082 40.0937 55.95 40.242C55.5918 40.3904 55.2079 40.4665 54.8202 40.4659V40.4659ZM67.1927 19.9489C68.3452 18.7963 68.3452 16.9275 67.1925 15.775L65.5349 14.1173C64.3822 12.9647 62.5134 12.9648 61.3608 14.1173C60.2083 15.27 60.2083 17.1388 61.3609 18.2913L63.0186 19.9489C63.5949 20.5252 64.3502 20.8133 65.1055 20.8133C65.8608 20.8133 66.6164 20.5253 67.1927 19.9489V19.9489ZM51.2711 20.1206C52.4236 18.968 52.4236 17.0992 51.2709 15.9467L49.6131 14.2891C48.4605 13.1364 46.5917 13.1366 45.4391 14.2891C44.2866 15.4417 44.2866 17.3105 45.4392 18.463L47.0969 20.1206C47.6731 20.6969 48.4284 20.985 49.1838 20.985C49.9391 20.985 50.6947 20.697 51.2711 20.1206V20.1206ZM59.6547 27.9367C60.8072 26.7841 60.8072 24.9153 59.6545 23.7628L57.9969 22.1052C56.8442 20.9525 54.9755 20.9527 53.8228 22.1052C52.6703 23.2578 52.6703 25.1266 53.823 26.2791L55.4806 27.9367C56.0569 28.513 56.8122 28.8011 57.5675 28.8011C58.3228 28.8011 59.0784 28.513 59.6547 27.9367ZM47.1917 30.7344C48.3442 29.5817 48.3442 27.713 47.1916 26.5605L45.5339 24.9028C44.3813 23.7502 42.5125 23.7503 41.3598 24.9028C40.2073 26.0555 40.2073 27.9242 41.36 29.0767L43.0177 30.7344C43.5939 31.3106 44.3492 31.5988 45.1045 31.5988C45.8598 31.5988 46.6155 31.3108 47.1917 30.7344ZM35.0031 35.6936C36.1556 34.5409 36.1556 32.6722 35.0031 31.5195L33.3455 29.8619C32.1928 28.7092 30.3241 28.7092 29.1714 29.8619C28.0189 31.0145 28.0189 32.8833 29.1714 34.0359L30.8291 35.6936C31.4053 36.2698 32.1608 36.558 32.9161 36.558C33.6714 36.558 34.4267 36.2698 35.0031 35.6936ZM43.3869 43.5095C44.5394 42.3569 44.5394 40.4881 43.3867 39.3356L41.7291 37.678C40.5764 36.5253 38.7077 36.5255 37.5552 37.678C36.4025 38.8306 36.4027 40.6994 37.5552 41.8519L39.2128 43.5095C39.7891 44.0858 40.5444 44.3739 41.2997 44.3739C42.055 44.3739 42.8105 44.0858 43.3869 43.5095V43.5095ZM38.808 18.7444L37.7383 17.6747C37.2907 18.0137 36.8466 18.3573 36.4061 18.7055C35.2937 19.5831 34.2039 20.489 33.1377 21.4222L34.6339 22.9184C35.2102 23.4947 35.9656 23.7828 36.7209 23.7828C37.4763 23.7828 38.2316 23.4947 38.808 22.9184C39.9606 21.7658 39.9606 19.897 38.808 18.7444V18.7444ZM52.4088 8.82875C52.5309 9.36962 52.8038 9.8648 53.1959 10.2569L54.8536 11.9145C55.4298 12.4908 56.1852 12.7789 56.9405 12.7789C57.6958 12.7789 58.4511 12.4908 59.0273 11.9145C60.18 10.7619 60.18 8.89313 59.0273 7.74047L57.8591 6.57219C57.5203 6.69584 57.1823 6.82178 56.8452 6.95C55.3461 7.52725 53.8665 8.15384 52.4088 8.82875V8.82875ZM69.0625 5.16625L68.0225 4.12609C67.8986 4.00324 67.764 3.89161 67.6203 3.7925C66.3483 4.04562 64.9031 4.38078 63.3388 4.81141C62.7347 5.92969 62.9036 7.355 63.8483 8.29984L64.8883 9.34C65.162 9.61452 65.4873 9.83222 65.8455 9.98058C66.2037 10.129 66.5876 10.2051 66.9753 10.2045C67.7306 10.2045 68.4859 9.91641 69.062 9.34031C70.215 8.18766 70.2152 6.31891 69.0625 5.16625V5.16625Z" fill="#B9B8B7"/>
    </svg>
