<svg width="80" height="80" viewBox="0 0 80 80" fill="none" xmlns="http://www.w3.org/2000/svg">
    <path d="M37.0317 12.2967L56.4783 27.7033L60.295 40L42.1033 43.475L20.9833 24.2183L25.47 15.0017L37.0333 12.2967H37.0317Z" stroke="#60A5FA" stroke-width="4" stroke-linejoin="round"/>
    <path d="M25.4667 15.0017L44.1433 31.0017" stroke="#60A5FA" stroke-width="4" stroke-linecap="round"/>
    <path d="M41.655 51.705L45.465 63.505L26.0017 67.2983L6.66667 48.3567L10.95 37.7083L20.0467 35.59M42.1033 43.475L44.1433 30.22L56.4767 27.7033L42.1033 43.475Z" stroke="#60A5FA" stroke-width="4" stroke-linecap="round" stroke-linejoin="round"/>
    <path d="M10.95 37.7083L28.8067 54.5967" stroke="#60A5FA" stroke-width="4" stroke-linecap="round"/>
    <path d="M26.0017 66.4417L29.1433 53.5533L41.6517 51.74" stroke="#60A5FA" stroke-width="4" stroke-linecap="round" stroke-linejoin="round"/>
    <path d="M58.145 49.3467L56.6667 61.3333L72.06 58.3317L68.8017 46.9783L58.145 49.345V49.3467Z" stroke="#60A5FA" stroke-width="4" stroke-linejoin="round"/>
    </svg>
