<svg width="205" height="126" viewBox="0 0 205 126" fill="none" xmlns="http://www.w3.org/2000/svg">
    <path d="M39.0625 8.33331C35.3329 8.33331 31.756 9.32103 29.1188 11.0792C26.4816 12.8373 25 15.2219 25 17.7083V82.2917C25 84.7781 26.4816 87.1626 29.1188 88.9208C31.756 90.6789 35.3329 91.6667 39.0625 91.6667H85.9375C89.6445 91.6668 93.2016 90.6911 95.8351 88.9518C98.4686 87.2125 99.9654 84.8504 100 82.3792V76.0458C100 75.217 99.5061 74.4222 98.6271 73.8361C97.748 73.2501 96.5557 72.9208 95.3125 72.9208C92.4813 72.9208 90.6938 72.4083 89.4625 71.7458C88.1625 71.05 87.0875 69.975 86.2688 68.4583C84.5625 65.3125 84.3813 61.1667 84.3813 57.2917C84.3812 56.4996 83.9299 55.7371 83.1188 55.1583L82.0875 54.4208C81.7514 54.169 81.3968 53.9284 81.025 53.7C80.5625 53.4083 79.15 52.5125 73.6313 48.8333C70.7 46.8792 69.0813 45.2291 68.55 43.9666C68.3352 43.5294 68.3007 43.0617 68.45 42.6125C68.6852 42.0944 69.1282 41.6291 69.7313 41.2667C70.2733 40.8663 70.9692 40.5724 71.7438 40.4166C72.4155 40.317 73.115 40.3401 73.7688 40.4833C75.6563 40.8375 78.1313 41.925 81.0625 43.8791C84.4375 46.1291 87.6438 48.2375 90.5125 50.1292C95.2625 53.2625 99.0938 55.7958 101.263 57.3375C102.112 57.9386 103.284 58.291 104.523 58.3176C105.761 58.3443 106.965 58.043 107.871 57.4797C108.777 56.9164 109.312 56.1368 109.358 55.3114C109.405 54.4861 108.959 53.682 108.119 53.075C105.458 51.22 102.752 49.3948 100 47.6V33.5833L117.756 45.425C120.394 47.1833 121.881 49.5666 121.881 52.05V88.5417C121.881 89.3705 122.375 90.1653 123.254 90.7514C124.133 91.3374 125.326 91.6667 126.569 91.6667C127.812 91.6667 129.004 91.3374 129.883 90.7514C130.762 90.1653 131.256 89.3705 131.256 88.5417V52.0541C131.256 50.0018 130.649 47.9696 129.471 46.0736C128.292 44.1776 126.565 42.455 124.388 41.0041L100 24.7458V17.7041C99.9983 15.2185 98.516 12.835 95.879 11.0777C93.2419 9.32046 89.666 8.33331 85.9375 8.33331H39.0625ZM83.5875 76.6167C85.6422 77.7127 88.0518 78.4745 90.625 78.8417V79.1667H85.9375C84.6943 79.1667 83.502 79.4959 82.6229 80.0819C81.7439 80.668 81.25 81.4629 81.25 82.2917V85.4167H71.875V82.2917C71.875 78.5708 75.1313 75.3542 79.85 73.8417C80.85 74.8583 82.075 75.8083 83.5875 76.6167ZM75.0125 58.525C75.025 59.5791 75.0563 60.7167 75.15 61.9C72.2398 63.2742 68.8697 64.1533 65.3333 64.4605C61.7968 64.7678 58.2014 64.494 54.86 63.663C51.5186 62.8319 48.5327 61.4689 46.1623 59.6925C43.7919 57.9161 42.1089 55.7803 41.26 53.4711C40.411 51.1619 40.4218 48.7493 41.2914 46.4436C42.161 44.1378 43.863 42.0087 46.2493 40.2418C48.6355 38.4748 51.6336 37.1237 54.9823 36.3059C58.331 35.4882 61.9289 35.2287 65.4625 35.55C64.6313 35.9208 63.8375 36.3541 63.1 36.85C61.275 38.0666 59.975 39.475 59.3688 41.0583C58.7625 42.6416 58.9063 44.2 59.525 45.6583C60.7063 48.4625 63.6813 51.0375 67.0063 53.2542C69.5481 54.9695 72.1233 56.6627 74.7313 58.3333L74.7563 58.3458L74.9875 58.5083L75.0125 58.525V58.525ZM43.75 14.5833H53.125V17.7083C53.125 20.1947 51.6434 22.5793 49.0062 24.3374C46.369 26.0956 42.7921 27.0833 39.0625 27.0833H34.375V20.8333H39.0625C40.3057 20.8333 41.498 20.5041 42.3771 19.918C43.2561 19.332 43.75 18.5371 43.75 17.7083V14.5833ZM71.875 14.5833H81.25V17.7083C81.25 19.4333 83.35 20.8333 85.9375 20.8333H90.625V27.0833H85.9375C82.2079 27.0833 78.631 26.0956 75.9938 24.3374C73.3566 22.5793 71.875 20.1947 71.875 17.7083V14.5833ZM53.125 85.4167H43.75V82.2917C43.75 81.4629 43.2561 80.668 42.3771 80.0819C41.498 79.4959 40.3057 79.1667 39.0625 79.1667H34.375V72.9167H39.0625C42.7921 72.9167 46.369 73.9044 49.0062 75.6625C51.6434 77.4207 53.125 79.8052 53.125 82.2917V85.4167Z" fill="#E8E7E6"/>
    <circle cx="17" cy="109" r="16.5" fill="#11026F" stroke="#60A5FA"/>
    <path d="M14.4136 106.387H16.1431C16.9666 106.387 17.5768 106.181 17.9736 105.769C18.3704 105.357 18.5688 104.811 18.5688 104.129C18.5688 103.471 18.3704 102.958 17.9736 102.591C17.5843 102.224 17.0452 102.041 16.3564 102.041C15.735 102.041 15.2147 102.213 14.7954 102.557C14.3761 102.894 14.1665 103.336 14.1665 103.882H10.9209C10.9209 103.029 11.1493 102.265 11.606 101.591C12.0701 100.91 12.714 100.378 13.5376 99.9966C14.3687 99.6147 15.2821 99.4238 16.2778 99.4238C18.0073 99.4238 19.3625 99.8394 20.3433 100.67C21.3241 101.494 21.8145 102.632 21.8145 104.084C21.8145 104.833 21.5861 105.522 21.1294 106.151C20.6727 106.78 20.0737 107.263 19.3325 107.6C20.2534 107.929 20.9385 108.423 21.3877 109.082C21.8444 109.741 22.0728 110.52 22.0728 111.418C22.0728 112.87 21.5412 114.035 20.478 114.911C19.4224 115.787 18.0223 116.225 16.2778 116.225C14.6457 116.225 13.3092 115.794 12.2686 114.933C11.2354 114.072 10.7188 112.934 10.7188 111.519H13.9644C13.9644 112.133 14.1927 112.635 14.6494 113.024C15.1136 113.413 15.6826 113.608 16.3564 113.608C17.1276 113.608 17.7303 113.406 18.1646 113.001C18.6063 112.59 18.8271 112.047 18.8271 111.373C18.8271 109.741 17.9287 108.925 16.1318 108.925H14.4136V106.387Z" fill="#E8E7E6"/>
    <path d="M93 94C101.861 93.7839 109.37 87.2591 117.556 94C120.372 96.3198 122.054 99.7238 125 102C129.931 105.81 139.179 102.026 143.667 99.3333C149.426 95.8779 154.279 91.4432 158.611 86.4444C161.918 82.6293 163.33 81 168.222 81C180.845 81 190.701 89.2338 202 93" stroke="#23A6CF" stroke-width="3" stroke-linecap="round"/>
    <path d="M198 83C198.104 87.264 198.755 88.8663 201.444 91.5556C202.727 92.8383 203.584 94.7129 201 95C198.321 95.2976 193.281 96.8593 191 98" stroke="#23A6CF" stroke-width="3" stroke-linecap="round"/>
    </svg>
