<svg width="203" height="110" viewBox="0 0 203 110" fill="none" xmlns="http://www.w3.org/2000/svg">
    <path d="M113.64 86.457L94.1656 66.9863C93.2867 66.1074 92.0953 65.6191 90.8453 65.6191H87.6617C93.0523 58.7246 96.2554 50.0547 96.2554 40.6211C96.2554 18.1816 78.07 0 55.6287 0C33.1874 0 15 18.1816 15 40.6211C15 63.0605 33.1855 81.2422 55.6287 81.2422C65.0622 81.2422 73.736 78.0391 80.6305 72.6484V75.832C80.6305 77.082 81.1188 78.2734 81.9977 79.1523L101.472 98.623C103.308 100.459 106.277 100.459 108.093 98.623L113.621 93.0957C115.457 91.2598 115.457 88.293 113.64 86.457ZM55.6287 68.7422C40.0936 68.7422 27.5038 56.1758 27.5038 40.6211C27.5038 25.0879 40.0721 12.5 55.6287 12.5C71.1638 12.5 83.7536 25.0664 83.7536 40.6211C83.7536 56.1543 71.1853 68.7422 55.6287 68.7422ZM55.6326 21.875C47.6678 21.875 41.2108 28.3301 41.2108 36.2949C41.2108 42.7324 50.6365 54.4688 54.2478 58.7285C54.4172 58.9312 54.629 59.0942 54.8683 59.2061C55.1076 59.3179 55.3685 59.3759 55.6326 59.3759C55.8967 59.3759 56.1576 59.3179 56.3969 59.2061C56.6362 59.0942 56.848 58.9312 57.0174 58.7285C60.6287 54.4688 70.0544 42.7344 70.0544 36.2949C70.0544 28.3301 63.5974 21.875 55.6326 21.875ZM55.6326 40.625C53.0428 40.625 50.9451 38.5254 50.9451 35.9375C50.9451 33.3477 53.0447 31.25 55.6326 31.25C58.2205 31.25 60.3201 33.3477 60.3201 35.9375C60.3201 38.5254 58.2205 40.625 55.6326 40.625Z" fill="#E5E5E5"/>
    <path d="M91 63C99.8607 62.7839 107.37 56.2591 115.556 63C118.372 65.3198 120.054 68.7238 123 71C127.931 74.8101 137.179 71.0262 141.667 68.3333C147.426 64.8779 152.279 60.4432 156.611 55.4444C159.918 51.6293 161.33 50 166.222 50C178.845 50 188.701 58.2338 200 62" stroke="#23A6CF" stroke-width="3" stroke-linecap="round"/>
    <path d="M196 52C196.104 56.264 196.755 57.8663 199.444 60.5556C200.727 61.8383 201.584 63.7129 199 64C196.321 64.2976 191.281 65.8593 189 67" stroke="#23A6CF" stroke-width="3" stroke-linecap="round"/>
    <circle cx="17" cy="93" r="16.5" fill="#11026F" stroke="#60A5FA"/>
    <path d="M18.9956 102H15.75V89.4893L11.8755 90.6909V88.0518L18.6475 85.626H18.9956V102Z" fill="#E8E7E6"/>
    </svg>
