<svg width="205" height="108" viewBox="0 0 205 108" fill="none" xmlns="http://www.w3.org/2000/svg">
    <path d="M115.64 86.457L96.1656 66.9863C95.2867 66.1074 94.0953 65.6191 92.8453 65.6191H89.6617C95.0523 58.7246 98.2554 50.0547 98.2554 40.6211C98.2554 18.1816 80.07 0 57.6287 0C35.1874 0 17 18.1816 17 40.6211C17 63.0605 35.1855 81.2422 57.6287 81.2422C67.0622 81.2422 75.736 78.0391 82.6305 72.6484V75.832C82.6305 77.082 83.1188 78.2734 83.9977 79.1523L103.472 98.623C105.308 100.459 108.277 100.459 110.093 98.623L115.621 93.0957C117.457 91.2598 117.457 88.293 115.64 86.457V86.457ZM57.6287 68.7422C42.0936 68.7422 29.5038 56.1758 29.5038 40.6211C29.5038 25.0879 42.0721 12.5 57.6287 12.5C73.1638 12.5 85.7536 25.0664 85.7536 40.6211C85.7536 56.1543 73.1853 68.7422 57.6287 68.7422ZM57.6326 21.875C49.6678 21.875 43.2108 28.3301 43.2108 36.2949C43.2108 42.7324 52.6365 54.4688 56.2478 58.7285C56.4172 58.9312 56.629 59.0942 56.8683 59.2061C57.1076 59.3179 57.3685 59.3759 57.6326 59.3759C57.8967 59.3759 58.1576 59.3179 58.3969 59.2061C58.6362 59.0942 58.848 58.9312 59.0174 58.7285C62.6287 54.4688 72.0544 42.7344 72.0544 36.2949C72.0544 28.3301 65.5974 21.875 57.6326 21.875V21.875ZM57.6326 40.625C55.0428 40.625 52.9451 38.5254 52.9451 35.9375C52.9451 33.3477 55.0447 31.25 57.6326 31.25C60.2205 31.25 62.3201 33.3477 62.3201 35.9375C62.3201 38.5254 60.2205 40.625 57.6326 40.625Z" fill="#E5E5E5"/>
    <path d="M93 63C101.861 62.7839 109.37 56.2591 117.556 63C120.372 65.3198 122.054 68.7238 125 71C129.931 74.8101 139.179 71.0262 143.667 68.3333C149.426 64.8779 154.279 60.4432 158.611 55.4444C161.918 51.6293 163.33 50 168.222 50C180.845 50 190.701 58.2338 202 62" stroke="#23A6CF" stroke-width="3" stroke-linecap="round"/>
    <path d="M198 52C198.104 56.264 198.755 57.8663 201.444 60.5556C202.727 61.8383 203.584 63.7129 201 64C198.321 64.2976 193.281 65.8593 191 67" stroke="#23A6CF" stroke-width="3" stroke-linecap="round"/>
    <circle cx="17" cy="91" r="14" fill="#11026F" stroke="#60A5FA" stroke-width="6"/>
    <path d="M18.9956 100H15.75V87.4893L11.8755 88.6909V86.0518L18.6475 83.626H18.9956V100Z" fill="#E8E7E6"/>
    </svg>
