<svg width="124" height="95" viewBox="0 0 124 95" fill="none" xmlns="http://www.w3.org/2000/svg">
    <circle cx="17" cy="78" r="14" fill="#11026F" stroke="#60A5FA" stroke-width="6"/>
    <path d="M14.4136 77.3867H16.1431C16.9666 77.3867 17.5768 77.1808 17.9736 76.769C18.3704 76.3573 18.5688 75.8107 18.5688 75.1294C18.5688 74.4705 18.3704 73.9577 17.9736 73.5908C17.5843 73.224 17.0452 73.0405 16.3564 73.0405C15.735 73.0405 15.2147 73.2127 14.7954 73.5571C14.3761 73.894 14.1665 74.3358 14.1665 74.8823H10.9209C10.9209 74.0288 11.1493 73.2651 11.606 72.5913C12.0701 71.91 12.714 71.3784 13.5376 70.9966C14.3687 70.6147 15.2821 70.4238 16.2778 70.4238C18.0073 70.4238 19.3625 70.8394 20.3433 71.6704C21.3241 72.494 21.8145 73.632 21.8145 75.0845C21.8145 75.8332 21.5861 76.522 21.1294 77.1509C20.6727 77.7798 20.0737 78.2627 19.3325 78.5996C20.2534 78.929 20.9385 79.4232 21.3877 80.082C21.8444 80.7409 22.0728 81.5195 22.0728 82.418C22.0728 83.8704 21.5412 85.0347 20.478 85.9106C19.4224 86.7866 18.0223 87.2246 16.2778 87.2246C14.6457 87.2246 13.3092 86.7941 12.2686 85.9331C11.2354 85.0721 10.7188 83.9341 10.7188 82.519H13.9644C13.9644 83.133 14.1927 83.6346 14.6494 84.0239C15.1136 84.4132 15.6826 84.6079 16.3564 84.6079C17.1276 84.6079 17.7303 84.4058 18.1646 84.0015C18.6063 83.5897 18.8271 83.0469 18.8271 82.373C18.8271 80.7409 17.9287 79.9248 16.1318 79.9248H14.4136V77.3867Z" fill="#E8E7E6"/>
    <path d="M111.84 38C121.797 45.845 122.751 65.7859 120.531 77.9938C119.645 82.8689 107.316 86.1385 103.087 86.1385" stroke="#23A6CF" stroke-width="3" stroke-linecap="round"/>
    <path d="M105.275 83.9503C100.592 83.9503 92.7845 83.7589 99.8051 87.4756C102.75 89.0348 103.774 91.4052 106.369 92.7028" stroke="#23A6CF" stroke-width="3" stroke-linecap="round"/>
    <path d="M104.5 2.66663H58.6667C57.5616 2.66663 56.5018 3.10561 55.7204 3.88701C54.939 4.66842 54.5 5.72822 54.5 6.83329V52.6666C54.5 53.7717 54.939 54.8315 55.7204 55.6129C56.5018 56.3943 57.5616 56.8333 58.6667 56.8333H104.5C105.605 56.8333 106.665 56.3943 107.446 55.6129C108.228 54.8315 108.667 53.7717 108.667 52.6666V6.83329C108.667 5.72822 108.228 4.66842 107.446 3.88701C106.665 3.10561 105.605 2.66663 104.5 2.66663V2.66663Z" stroke="#E8E7E6" stroke-width="4" stroke-linejoin="round"/>
    <path d="M25.3333 56.8333H54.5V27.6666H39.9167L25.3333 41.1291V56.8333Z" stroke="#E8E7E6" stroke-width="4" stroke-linejoin="round"/>
    <path d="M54.5 61C54.5 63.2101 53.622 65.3297 52.0592 66.8925C50.4964 68.4553 48.3768 69.3333 46.1667 69.3333C43.9565 69.3333 41.8369 68.4553 40.2741 66.8925C38.7113 65.3297 37.8333 63.2101 37.8333 61" stroke="#E8E7E6" stroke-width="4" stroke-linecap="square" stroke-linejoin="round"/>
    <path d="M100.333 61C100.333 63.2101 99.4553 65.3297 97.8925 66.8925C96.3297 68.4553 94.2101 69.3333 92 69.3333C89.7899 69.3333 87.6702 68.4553 86.1074 66.8925C84.5446 65.3297 83.6667 63.2101 83.6667 61" stroke="#E8E7E6" stroke-width="4" stroke-linecap="square" stroke-linejoin="round"/>
    </svg>
