<svg width="124" height="95" viewBox="0 0 124 95" fill="none" xmlns="http://www.w3.org/2000/svg">
    <circle cx="17" cy="78" r="16.5" fill="#11026F" stroke="#60A5FA"/>
    <path d="M20.7139 80.8457H22.5669V83.4624H20.7139V87H17.4683V83.4624H10.7637L10.6177 81.4185L17.4346 70.6484H20.7139V80.8457ZM13.8521 80.8457H17.4683V75.0732L17.2549 75.4438L13.8521 80.8457Z" fill="#E8E7E6"/>
    <path d="M111.84 38C121.797 45.845 122.751 65.7859 120.531 77.9938C119.645 82.8689 107.316 86.1385 103.087 86.1385" stroke="#23A6CF" stroke-width="3" stroke-linecap="round"/>
    <path d="M105.275 83.9503C100.592 83.9503 92.7845 83.7589 99.8051 87.4756C102.75 89.0348 103.774 91.4052 106.369 92.7028" stroke="#23A6CF" stroke-width="3" stroke-linecap="round"/>
    <path d="M104.5 2.66663H58.6667C57.5616 2.66663 56.5018 3.10561 55.7204 3.88701C54.939 4.66842 54.5 5.72822 54.5 6.83329V52.6666C54.5 53.7717 54.939 54.8315 55.7204 55.6129C56.5018 56.3943 57.5616 56.8333 58.6667 56.8333H104.5C105.605 56.8333 106.665 56.3943 107.446 55.6129C108.228 54.8315 108.667 53.7717 108.667 52.6666V6.83329C108.667 5.72822 108.228 4.66842 107.446 3.88701C106.665 3.10561 105.605 2.66663 104.5 2.66663V2.66663Z" stroke="#E8E7E6" stroke-width="4" stroke-linejoin="round"/>
    <path d="M25.3333 56.8333H54.5V27.6666H39.9167L25.3333 41.1291V56.8333Z" stroke="#E8E7E6" stroke-width="4" stroke-linejoin="round"/>
    <path d="M54.5 61C54.5 63.2101 53.622 65.3297 52.0592 66.8925C50.4964 68.4553 48.3768 69.3333 46.1667 69.3333C43.9565 69.3333 41.8369 68.4553 40.2741 66.8925C38.7113 65.3297 37.8333 63.2101 37.8333 61" stroke="#E8E7E6" stroke-width="4" stroke-linecap="square" stroke-linejoin="round"/>
    <path d="M100.333 61C100.333 63.2101 99.4553 65.3297 97.8925 66.8925C96.3297 68.4553 94.2101 69.3333 92 69.3333C89.7899 69.3333 87.6702 68.4553 86.1074 66.8925C84.5446 65.3297 83.6667 63.2101 83.6667 61" stroke="#E8E7E6" stroke-width="4" stroke-linecap="square" stroke-linejoin="round"/>
    </svg>
